# xmcd
# 
# Track frame offsets:
#     150
#     18645
#     34635
#     49407
#     63605
#     76232
#     96070
#     111697
#     130510
#     145447
#     159462
#     171857
#     185357
#     202635
# 
# Disc length: 2867
# 
# Revision: 6
# Processed by: cddbd v1.5.2PL0 Copyright (c) Steve Scherf et al.
# Submitted via: BonkEnc v1.0
# 
DISCID=be0b310e
DTITLE=Paulo Ricardo - O Amor Me Escolheu
DYEAR=0
DGENRE=Ballad
TTITLE0=E não vou mais deixar você tão só
TTITLE1=Amor em vão
TTITLE2=Só me fez bem
TTITLE3=Que Pena (ela já não gosta mais de mim)
TTITLE4=O amor me escolheu
TTITLE5=Tudo por nada
TTITLE6=Depende
TTITLE7=Dois
TTITLE8=De novo
TTITLE9=Não identificado
TTITLE10=Felicidade
TTITLE11=Voce é a canção
TTITLE12=Lilás
TTITLE13=Cuando te vas
EXTD=
EXTT0=
EXTT1=
EXTT2=
EXTT3=
EXTT4=
EXTT5=
EXTT6=
EXTT7=
EXTT8=
EXTT9=
EXTT10=
EXTT11=
EXTT12=
EXTT13=
PLAYORDER=
